<svg id="Capa_1" data-name="Capa 1" xmlns="http://www.w3.org/2000/svg" xmlns:xlink="http://www.w3.org/1999/xlink" width="7.01cm" height="3.43cm" viewBox="0 0 198.77 97.11">
  <defs>
    <style>
      .cls-1 {
        fill: none;
      }

      .cls-2 {
        clip-path: url(#clip-path);
      }

      .cls-3, .cls-4 {
        fill: #9b0033;
      }

      .cls-4, .cls-5 {
        fill-rule: evenodd;
      }

      .cls-6 {
        fill: #a10045;
      }

      .cls-7 {
        fill: #fff;
      }
    </style>
    <clipPath id="clip-path" transform="translate(0 0)">
      <rect class="cls-1" width="198.77" height="97.11"/>
    </clipPath>
  </defs>
  <title>verisign</title>
  <g class="cls-2">
    <path class="cls-3" d="M68.7,24.65h93.73c9.42,0,17.25,3,23.87,9.09a29,29,0,0,1,9.79,22h0c-0.1,8.59-3.28,15.69-9.8,21.82h0a33.83,33.83,0,0,1-23.87,9.17H68.7a1.34,1.34,0,1,0,0,2.68h93.73a36.55,36.55,0,0,0,25.69-9.88h0a31.77,31.77,0,0,0,10.65-23.75v0a31.74,31.74,0,0,0-10.66-23.93A36.48,36.48,0,0,0,162.43,22H68.7a1.34,1.34,0,1,0,0,2.68m0,0h93.73c9.42,0,17.25,3,23.87,9.09a29,29,0,0,1,9.79,22h0c-0.1,8.59-3.28,15.69-9.8,21.82h0a33.83,33.83,0,0,1-23.87,9.17H68.7a1.34,1.34,0,1,0,0,2.68h93.73a36.55,36.55,0,0,0,25.69-9.88h0a31.77,31.77,0,0,0,10.65-23.75v0a31.74,31.74,0,0,0-10.66-23.93A36.48,36.48,0,0,0,162.43,22H68.7a1.34,1.34,0,1,0,0,2.68" transform="translate(0 0)"/>
    <path class="cls-4" d="M60.38,23.91A35,35,0,0,1,73.12,36.56,35.92,35.92,0,0,1,77.88,54.4a35.44,35.44,0,0,1-4.76,17.85A35.89,35.89,0,0,1,60.38,85,35.17,35.17,0,0,1,12.13,72.25,34.43,34.43,0,0,1,7.28,54.4a35.12,35.12,0,0,1,4.85-17.84A34.09,34.09,0,0,1,24.78,23.91a35.09,35.09,0,0,1,35.6,0m-17.84-12a42.2,42.2,0,0,0-21.48,5.81A45,45,0,0,0,5.8,32.92a42.66,42.66,0,0,0,0,43A45.53,45.53,0,0,0,21.05,91.31a44,44,0,0,0,21.48,5.8,42.29,42.29,0,0,0,21.57-5.8A44.29,44.29,0,0,0,79.44,75.89,43.09,43.09,0,0,0,85.24,54.4a42.22,42.22,0,0,0-5.81-21.48A43.81,43.81,0,0,0,64.11,17.67a42.29,42.29,0,0,0-21.57-5.81" transform="translate(0 0)"/>
    <polygon class="cls-3" points="95.99 42.1 98.93 42.1 102.05 50.68 105.26 42.1 108.11 42.1 103.27 54.32 100.92 54.32 95.99 42.1"/>
    <path class="cls-3" d="M129.86,45h2.69v9.27h-2.69V45Zm-0.09-3.38h2.77v2.34h-2.77V41.58ZM121.46,45h2.6v1.82a3.94,3.94,0,0,1,1.13-1.47,2.11,2.11,0,0,1,1.82-.52v2.77h-0.09a2.55,2.55,0,0,0-2.08.78,3.49,3.49,0,0,0-.78,2.51v3.38h-2.6V45Zm-5.63,3.9a2.8,2.8,0,0,0-.61-1.47,1.76,1.76,0,0,0-1.3-.52,1.83,1.83,0,0,0-1.39.52,2.91,2.91,0,0,0-.69,1.47h4Zm-1.73,5.63a5.07,5.07,0,0,1-1.91-.43,3.61,3.61,0,0,1-1.56-1,4.34,4.34,0,0,1-1-1.47,5.12,5.12,0,0,1-.43-2,5.11,5.11,0,0,1,1.3-3.46,4.49,4.49,0,0,1,1.47-1,4.67,4.67,0,0,1,1.9-.35,4.8,4.8,0,0,1,2,.43,3,3,0,0,1,1.39,1.13,6.69,6.69,0,0,1,.87,1.56,7.23,7.23,0,0,1,.26,1.91l-0.09.35v0.35h-6.41a2,2,0,0,0,.78,1.39,2.69,2.69,0,0,0,1.47.43,3.06,3.06,0,0,0,1.21-.26,4.16,4.16,0,0,0,1-.69l1.47,1.3a3.7,3.7,0,0,1-1.56,1.3,4.55,4.55,0,0,1-2.25.52" transform="translate(0 0)"/>
    <path class="cls-3" d="M140.69,54.4a7.85,7.85,0,0,1-2.77-.52,6.53,6.53,0,0,1-2.43-1.47l1.65-1.82a6.58,6.58,0,0,0,1.65,1,4.72,4.72,0,0,0,1.91.43,1.8,1.8,0,0,0,1.3-.35,0.91,0.91,0,0,0,.43-0.78V50.42L142,50.07l-0.69-.35-1.3-.43-1.65-.43-1.3-.69-0.78-1a3.72,3.72,0,0,1-.26-1.47V45.57l0.26-1.47a3,3,0,0,1,1-1.13,3.28,3.28,0,0,1,1.3-.78,5.59,5.59,0,0,1,1.73-.26,7.51,7.51,0,0,1,2.43.43,6,6,0,0,1,2.08,1.13l-1.39,2-1.65-.86a3.38,3.38,0,0,0-1.56-.35,1.46,1.46,0,0,0-1.13.35,0.88,0.88,0,0,0-.43.69v0.09l0.17,0.52,0.35,0.35L140,46.61l1.3,0.35,1.65,0.61a5.5,5.5,0,0,1,1.21.69l0.69,1a3.59,3.59,0,0,1,.26,1.39v0.08a3,3,0,0,1-.35,1.56,2.86,2.86,0,0,1-.87,1.21,5.77,5.77,0,0,1-1.47.69,5.55,5.55,0,0,1-1.73.26" transform="translate(0 0)"/>
    <path class="cls-3" d="M148.48,45h2.69v9.27h-2.69V45Zm-0.09-3.38h2.77v2.34H148.4V41.58Z" transform="translate(0 0)"/>
    <path class="cls-3" d="M167.89,45h2.6v1.3l0.52-.52,0.61-.52,0.69-.35,0.87-.09a2.94,2.94,0,0,1,2.34,1,3.29,3.29,0,0,1,.87,2.51v6h-2.68V49a2.2,2.2,0,0,0-.35-1.39,1.92,1.92,0,0,0-2.43,0,2.21,2.21,0,0,0-.43,1.39v5.2h-2.6V45m-8.32,6.32,1-.17a1.52,1.52,0,0,0,.69-0.43,1.89,1.89,0,0,0,.43-0.69,2.55,2.55,0,0,0,.17-0.87l-0.17-.87a1.89,1.89,0,0,0-.43-0.69l-0.69-.44-1-.17-0.87.17-0.69.44a1.33,1.33,0,0,0-.52.69l-0.17.87a1.9,1.9,0,0,0,.69,1.56,2.08,2.08,0,0,0,1.56.61M159.31,57l-2.17-.26a5,5,0,0,1-2-.69l1-2,1.47,0.69,1.65,0.17a2.75,2.75,0,0,0,2-.61,2.53,2.53,0,0,0,.61-1.91V52a5,5,0,0,1-1.21,1.13,3.59,3.59,0,0,1-1.82.35,4.9,4.9,0,0,1-1.56-.26,3.79,3.79,0,0,1-1.3-.87,4.87,4.87,0,0,1-.87-1.3,4.66,4.66,0,0,1-.35-1.91,4,4,0,0,1,.35-1.82,4.26,4.26,0,0,1,.87-1.39,3.41,3.41,0,0,1,1.39-.87l1.47-.26a3.51,3.51,0,0,1,1.82.44,4.18,4.18,0,0,1,1.21,1V45h2.6v7.19a5,5,0,0,1-1.13,3.64,3.91,3.91,0,0,1-1.65,1Z" transform="translate(0 0)"/>
    <path class="cls-3" d="M102.74,69.56A7.87,7.87,0,0,1,100,69a6.54,6.54,0,0,1-2.43-1.47l1.65-1.82a6.59,6.59,0,0,0,1.65,1,4.72,4.72,0,0,0,1.91.43,1.8,1.8,0,0,0,1.3-.35,0.91,0.91,0,0,0,.43-0.78V65.58L104,65.23l-0.69-.35-1.3-.43L100.4,64l-1.3-.69-0.78-1a3.73,3.73,0,0,1-.26-1.47V60.73l0.26-1.47a3,3,0,0,1,1-1.13,3.27,3.27,0,0,1,1.3-.78,5.6,5.6,0,0,1,1.73-.26,7.51,7.51,0,0,1,2.43.43,6,6,0,0,1,2.08,1.13l-1.39,2-1.65-.87a3.38,3.38,0,0,0-1.56-.35,1.46,1.46,0,0,0-1.12.35,0.88,0.88,0,0,0-.43.69v0.09l0.17,0.52,0.35,0.35,0.87,0.35,1.3,0.35L105,62.72a5.53,5.53,0,0,1,1.21.69l0.69,1a3.59,3.59,0,0,1,.26,1.39v0.09a3,3,0,0,1-.35,1.56,2.87,2.87,0,0,1-.87,1.21,5.76,5.76,0,0,1-1.47.69,5.56,5.56,0,0,1-1.73.26" transform="translate(0 0)"/>
    <path class="cls-3" d="M127.26,69.65a4.73,4.73,0,0,1-1.9-.43,5,5,0,0,1-1.56-1,4.32,4.32,0,0,1-1-1.47,5.06,5.06,0,0,1-.43-1.91,5.84,5.84,0,0,1,1.39-3.46,4.91,4.91,0,0,1,1.56-1,4.82,4.82,0,0,1,2-.35,5.35,5.35,0,0,1,2.17.43A3.77,3.77,0,0,1,131,61.51l-1.56,1.73a2.69,2.69,0,0,0-1-.78,2.3,2.3,0,0,0-1.21-.26l-0.87.17L125.7,63l-0.52.78-0.17,1V64.8a3.14,3.14,0,0,0,.17,1,1.8,1.8,0,0,0,.52.86,1.34,1.34,0,0,0,.69.52,3.25,3.25,0,0,0,1,.17,2.42,2.42,0,0,0,1.13-.26l1-.69,1.56,1.56a7.45,7.45,0,0,1-1.56,1.21,4.33,4.33,0,0,1-2.25.52M116.86,64a2.81,2.81,0,0,0-.6-1.47A1.77,1.77,0,0,0,115,62a1.83,1.83,0,0,0-1.39.52,2.91,2.91,0,0,0-.69,1.47h4Zm-1.73,5.63a5.09,5.09,0,0,1-1.91-.43,3.62,3.62,0,0,1-1.56-1,4.32,4.32,0,0,1-1-1.47,5.14,5.14,0,0,1-.43-2,4.68,4.68,0,0,1,.35-1.91,4.75,4.75,0,0,1,1-1.56,4.53,4.53,0,0,1,1.47-1,4.67,4.67,0,0,1,1.9-.35,4.81,4.81,0,0,1,2,.43,3,3,0,0,1,1.39,1.13,6.65,6.65,0,0,1,.87,1.56,7.27,7.27,0,0,1,.26,1.91l-0.09.35v0.35H113a2.05,2.05,0,0,0,.78,1.39,2.7,2.7,0,0,0,1.47.43,3,3,0,0,0,1.21-.26,4.18,4.18,0,0,0,1-.69l1.47,1.3a3.71,3.71,0,0,1-1.56,1.3,4.55,4.55,0,0,1-2.25.52" transform="translate(0 0)"/>
    <path class="cls-3" d="M137.4,69.56a3.19,3.19,0,0,1-2.34-1,3.63,3.63,0,0,1-.78-2.51v-6h2.6v5.2a2.21,2.21,0,0,0,.43,1.39,1.72,1.72,0,0,0,1.21.43,2.08,2.08,0,0,0,1.21-.43,2.21,2.21,0,0,0,.43-1.39v-5.2h2.6v9.27h-2.6v-1.3l-0.52.52-0.61.52-0.69.35-1,.09" transform="translate(0 0)"/>
    <path class="cls-3" d="M172.22,67.31a3.14,3.14,0,0,0,1-.17l0.69-.52a3.47,3.47,0,0,0,.43-0.78l0.17-1V64.71l-0.17-1-0.43-.78-0.69-.52a3.11,3.11,0,0,0-1-.17l-0.87.17-0.69.52-0.52.78a3.25,3.25,0,0,0-.17,1V64.8l0.17,1a2.07,2.07,0,0,0,.52.78l0.69,0.52,0.87,0.17m-0.61,2.25a3.54,3.54,0,0,1-1.65-.34,3.81,3.81,0,0,1-1.3-.87,4.75,4.75,0,0,1-1-1.56,4.81,4.81,0,0,1-.35-2V64.71a5.24,5.24,0,0,1,.35-2.08,4.35,4.35,0,0,1,1-1.47,2.66,2.66,0,0,1,1.3-.87,3.53,3.53,0,0,1,1.65-.35,3.41,3.41,0,0,1,1.74.44,3,3,0,0,1,1.13,1V56.74h2.6V69.39h-2.6v-1.3a3.27,3.27,0,0,1-1.12,1,3.42,3.42,0,0,1-1.74.43M161.74,64a2.81,2.81,0,0,0-.6-1.47,1.77,1.77,0,0,0-1.3-.52,1.83,1.83,0,0,0-1.39.52,2.92,2.92,0,0,0-.69,1.47h4ZM160,69.65a5.1,5.1,0,0,1-1.91-.43,3.63,3.63,0,0,1-1.56-1,4.33,4.33,0,0,1-1-1.47,5.14,5.14,0,0,1-.43-2,4.68,4.68,0,0,1,.35-1.91,4.75,4.75,0,0,1,1-1.56,4.55,4.55,0,0,1,1.47-1,4.68,4.68,0,0,1,1.91-.35,4.8,4.8,0,0,1,2,.44,3,3,0,0,1,1.39,1.13,6.62,6.62,0,0,1,.87,1.56,7.2,7.2,0,0,1,.26,1.91l-0.09.35v0.35h-6.41a2,2,0,0,0,.78,1.39,2.71,2.71,0,0,0,1.47.43,3.06,3.06,0,0,0,1.21-.26,4.21,4.21,0,0,0,1-.69l1.47,1.3a3.72,3.72,0,0,1-1.56,1.3,4.56,4.56,0,0,1-2.25.52m-13.08-9.53h2.6v1.82a3.92,3.92,0,0,1,1.13-1.47,2.11,2.11,0,0,1,1.82-.52v2.77h-0.09a2.56,2.56,0,0,0-2.08.78,3.49,3.49,0,0,0-.78,2.51v3.38h-2.6V60.12Z" transform="translate(0 0)"/>
    <path class="cls-4" d="M181.58,20.79h3.72v0.87H184v3.55h-1V21.66h-1.39V20.79Zm9.27,0v4.42h-1V22.35l-1.13,1.9h-0.17l-1.13-1.9v2.86h-1V20.79h1.13l1.21,1.91,1.13-1.91h1Z" transform="translate(0 0)"/>
    <path class="cls-5" d="M67.83,33.87H64.63v3.29h3.21V33.87Zm-3.21-8.32h3.21v3.2H64.63v-3.2Zm8.32-8.49H69.65V13.86h3.29v3.21Zm6.41-6.67h6.32V6.93H79.35V17.07H72.94v3.29H67.48v2.25H64.63v2.95H61.16v5.11H57.87v3.2H55.7v3.29H53.28A107.78,107.78,0,0,0,41.84,58.65C35.6,49.9,29.8,44.7,24.43,43c-1.47-.43-2.51-0.09-3.12,1.21S21.22,47.13,23,49c5.46,6,10.48,14.47,15.07,25.3,0.69,1.73,2.25,2.69,4.76,2.94,2.34,0.17,3.9-.69,4.59-2.6a106.1,106.1,0,0,1,11.78-23V47.91h2.6V44.7h2.77V40.8h3.21V37.17h3.29V33.87h2.6v-4h2.86V27.2h2.77V20.36h3.2V17.07h3.72V13.77H82.56v3.29h-3.2v3.29H76.15v3.21H72.94V20.36h3.21v-10h3.21Z" transform="translate(0 0)"/>
    <rect class="cls-6" x="79.35" y="10.4" width="3.21" height="3.38"/>
    <rect class="cls-7" x="64.63" y="25.56" width="3.21" height="3.2"/>
    <rect class="cls-3" x="89.32" y="6.93" width="3.46" height="3.46"/>
    <polyline points="89.4 6.93 89.4 3.47 85.94 3.47 85.94 6.93"/>
    <rect class="cls-3" x="89.32" width="3.46" height="3.47"/>
  </g>
</svg>
